<svg version="1.2" xmlns="http://www.w3.org/2000/svg" viewBox="0 0 1583 1582" width="1583" height="1582">
	<title>LinkedIn_2021-svg</title>
	<style>
		.s0 { fill: #ffffff } 
		.s1 { fill: #0a66c2 } 
	</style>
	<g id="layer1">
		<g id="g1917">
			<g id="g1915">
				<g id="g1913">
					<g id="g1905">
						<path id="path1901" fill-rule="evenodd" class="s0" d="m1467.7 0h-1347.9c-64.5 0-119.2 51-119.2 113.8v1353.4c0 62.9 35.9 113.9 100.4 113.9h1347.9c64.5 0 133.4-51 133.4-113.9v-1353.4c0-62.8-50-113.8-114.6-113.8z"/>
						<path id="path1903" fill-rule="evenodd" class="s1" d="m1582.3 113.8v1353.4c0 62.9-68.9 113.9-133.4 113.9h-1347.9c-64.5 0-100.4-51-100.4-113.9v-1353.4c0-62.8 54.7-113.8 119.2-113.8h1347.9c64.6 0 114.6 51 114.6 113.8zm-979.2 1241.4h226v-361.6c0-126.2 54.1-203.1 167.7-203.1 93.6 0 133.6 87.9 133.6 188v376.7h225.9v-417.9c0-223.6-63.5-344.4-291-344.4-118.6 0-214.4 59.4-246.9 117.9h-2.3v-108.5h-213zm-376.6 0h226v-752.9h-226zm212.9-1116.1c-26.5-26.5-62.4-41.3-99.9-41.3-37.4 0-73.3 14.9-99.8 41.3-26.5 26.5-41.3 62.4-41.3 99.8 0 37.4 14.9 73.3 41.3 99.8 26.5 26.5 62.5 41.3 99.9 41.3 37.4 0 73.4-14.9 99.8-41.3 26.5-26.5 41.4-62.4 41.3-99.9 0-37.4-14.9-73.3-41.3-99.7z"/>
					</g>
				</g>
			</g>
		</g>
	</g>
</svg>