<?xml version="1.0" encoding="UTF-8" standalone="no"?>
<!DOCTYPE svg PUBLIC "-//W3C//DTD SVG 1.1//EN" "http://www.w3.org/Graphics/SVG/1.1/DTD/svg11.dtd">
<svg width="100%" height="100%" viewBox="0 0 6240 2000" version="1.1" xmlns="http://www.w3.org/2000/svg" xmlns:xlink="http://www.w3.org/1999/xlink" xml:space="preserve" xmlns:serif="http://www.serif.com/" style="fill-rule:evenodd;clip-rule:evenodd;stroke-linejoin:round;stroke-miterlimit:2;">
    <g transform="matrix(4.81928,0,0,4.81928,1000,1000)">
        <g transform="matrix(1,0,0,1,-207.5,-207.5)">
            <clipPath id="_clip1">
                <rect x="0" y="0" width="415" height="415"/>
            </clipPath>
            <g clip-path="url(#_clip1)">
                <g transform="matrix(2.12506,0,0,1.73613,-27.8436,-2.69998)">
                    <ellipse cx="110.68" cy="121.551" rx="97.644" ry="119.519" style="fill:rgb(232,96,0);"/>
                </g>
                <g transform="matrix(0.1,0,0,-0.1,-305.01,837.66)">
                    <path d="M4965,8370C4232,8318 3574,7878 3255,7225C3161,7032 3101,6845 3065,6630C3043,6498 3034,6210 3049,6080C3122,5443 3448,4911 3981,4560C4110,4475 4442,4315 4455,4332C4456,4334 4496,4457 4543,4605C4591,4754 4668,4991 4714,5132L4797,5389L4195,5395L4144,5422C4115,5437 4078,5466 4061,5487C4000,5560 4000,5563 4000,6231C4000,6814 4001,6841 4020,6893C4041,6949 4092,7006 4150,7036C4182,7053 4215,7055 4490,7058L4795,7061L4818,7103L4841,7144L4743,7245C4370,7626 4360,7637 4360,7667C4360,7713 4385,7740 4428,7740C4463,7740 4477,7727 4718,7481L4971,7222L5045,7227L5120,7233L5122,6984L5125,6735L5490,6730C5760,6726 5861,6722 5877,6712C5929,6683 5930,6673 5930,6222L5930,5803L5907,5769C5870,5714 5851,5711 5468,5711L5120,5710L5120,6730L4761,6730C4413,6730 4402,6729 4376,6709C4320,6665 4320,6666 4320,6223C4320,5836 4321,5813 4340,5783C4381,5715 4376,5716 4767,5710L5120,5705L5123,4966L5125,4227L5215,4229C5343,4232 5510,4255 5641,4289C5775,4323 5813,4337 5806,4349C5801,4356 5473,5309 5456,5368L5449,5390L5733,5390C6052,5390 6088,5395 6157,5454C6179,5474 6208,5512 6221,5542L6245,5595L6248,6199C6250,6613 6247,6821 6240,6857C6225,6929 6178,6988 6111,7023L6056,7050L5482,7050L5445,7101L5408,7153L5649,7394C5808,7554 5890,7643 5890,7657C5890,7693 5852,7730 5815,7730C5778,7730 5762,7714 5460,7382C5325,7232 5302,7211 5280,7216C5266,7218 5228,7223 5195,7227C5162,7230 5132,7238 5128,7244C5124,7250 5120,7507 5121,7815L5121,8375L5098,8376C5085,8377 5026,8374 4965,8370Z" style="fill:rgb(0,67,96);fill-rule:nonzero;"/>
                </g>
            </g>
        </g>
    </g>
    <g transform="matrix(4.32687,0,0,4.32687,4220,662.918)">
        <g transform="matrix(1,0,0,1,-466.85,-98.6667)">
            <clipPath id="_clip2">
                <rect x="0" y="0" width="933.7" height="197.333"/>
            </clipPath>
            <g clip-path="url(#_clip2)">
                <g transform="matrix(1,0,0,1,-271.433,-369.053)">
                    <g transform="matrix(266.667,0,0,266.667,245.804,563.72)">
                        <path d="M0.096,-0L0.096,-0.71L0.328,-0.71C0.403,-0.71 0.465,-0.694 0.514,-0.663C0.564,-0.631 0.601,-0.588 0.626,-0.535C0.65,-0.481 0.663,-0.421 0.663,-0.356C0.663,-0.284 0.649,-0.221 0.622,-0.168C0.595,-0.115 0.556,-0.073 0.506,-0.044C0.456,-0.015 0.396,-0 0.328,-0L0.096,-0ZM0.628,-0.356C0.628,-0.418 0.617,-0.474 0.593,-0.522C0.57,-0.571 0.536,-0.609 0.491,-0.636C0.447,-0.664 0.392,-0.678 0.328,-0.678L0.131,-0.678L0.131,-0.032L0.328,-0.032C0.394,-0.032 0.449,-0.047 0.493,-0.075C0.538,-0.103 0.571,-0.142 0.594,-0.191C0.617,-0.24 0.628,-0.295 0.628,-0.356Z" style="fill-rule:nonzero;"/>
                    </g>
                    <g transform="matrix(266.667,0,0,266.667,435.678,563.72)">
                        <path d="M0.076,-0.224L0.076,-0.52L0.11,-0.52L0.11,-0.228C0.11,-0.158 0.121,-0.107 0.144,-0.073C0.167,-0.039 0.202,-0.022 0.249,-0.022C0.281,-0.022 0.311,-0.029 0.34,-0.043C0.369,-0.057 0.394,-0.077 0.416,-0.103C0.438,-0.128 0.454,-0.157 0.464,-0.19L0.464,-0.52L0.498,-0.52L0.498,-0.052C0.498,-0.045 0.5,-0.04 0.503,-0.036C0.506,-0.032 0.511,-0.03 0.516,-0.03L0.516,-0C0.511,0 0.507,0 0.504,0C0.502,-0 0.499,-0 0.497,-0.001C0.488,-0.003 0.481,-0.008 0.476,-0.016C0.47,-0.023 0.467,-0.032 0.467,-0.042L0.466,-0.128C0.444,-0.086 0.412,-0.052 0.372,-0.027C0.332,-0.002 0.289,0.01 0.242,0.01C0.188,0.01 0.146,-0.01 0.118,-0.049C0.09,-0.088 0.076,-0.147 0.076,-0.224Z" style="fill-rule:nonzero;"/>
                    </g>
                    <g transform="matrix(266.667,0,0,266.667,590.652,563.72)">
                        <path d="M0.495,-0L0.461,-0L0.461,-0.29C0.461,-0.361 0.451,-0.413 0.43,-0.446C0.41,-0.479 0.378,-0.496 0.334,-0.496C0.302,-0.496 0.272,-0.488 0.242,-0.473C0.212,-0.458 0.185,-0.438 0.163,-0.413C0.141,-0.387 0.125,-0.358 0.115,-0.325L0.115,-0L0.081,-0L0.081,-0.52L0.114,-0.52L0.114,-0.39C0.128,-0.417 0.147,-0.441 0.171,-0.462C0.194,-0.483 0.221,-0.499 0.25,-0.51C0.28,-0.522 0.31,-0.528 0.34,-0.528C0.368,-0.528 0.391,-0.523 0.411,-0.513C0.43,-0.503 0.446,-0.488 0.459,-0.469C0.471,-0.449 0.48,-0.425 0.486,-0.396C0.492,-0.367 0.495,-0.332 0.495,-0.294L0.495,-0Z" style="fill-rule:nonzero;"/>
                    </g>
                    <g transform="matrix(266.667,0,0,266.667,742.692,563.72)">
                        <path d="M0.044,-0.258C0.044,-0.307 0.055,-0.351 0.075,-0.392C0.096,-0.433 0.125,-0.465 0.161,-0.49C0.197,-0.515 0.238,-0.528 0.284,-0.528C0.331,-0.528 0.372,-0.515 0.408,-0.49C0.444,-0.466 0.472,-0.436 0.492,-0.402L0.492,-0.73L0.526,-0.73L0.526,-0.052C0.526,-0.045 0.528,-0.04 0.531,-0.036C0.534,-0.032 0.539,-0.03 0.544,-0.03L0.544,-0C0.536,0.001 0.53,0 0.526,-0.001C0.517,-0.003 0.509,-0.009 0.503,-0.017C0.497,-0.025 0.494,-0.034 0.494,-0.043L0.494,-0.106C0.473,-0.072 0.444,-0.044 0.407,-0.022C0.371,-0.001 0.333,0.01 0.294,0.01C0.258,0.01 0.225,0.002 0.194,-0.013C0.163,-0.028 0.137,-0.048 0.115,-0.074C0.092,-0.099 0.075,-0.128 0.063,-0.16C0.05,-0.192 0.044,-0.225 0.044,-0.258ZM0.492,-0.172L0.492,-0.351C0.482,-0.378 0.467,-0.402 0.445,-0.424C0.423,-0.446 0.399,-0.463 0.371,-0.477C0.343,-0.49 0.316,-0.496 0.289,-0.496C0.257,-0.496 0.228,-0.49 0.202,-0.476C0.177,-0.463 0.154,-0.445 0.136,-0.422C0.118,-0.399 0.103,-0.374 0.094,-0.346C0.084,-0.317 0.079,-0.288 0.079,-0.258C0.079,-0.227 0.084,-0.197 0.095,-0.169C0.107,-0.14 0.122,-0.115 0.143,-0.093C0.163,-0.071 0.186,-0.053 0.213,-0.041C0.239,-0.028 0.268,-0.022 0.298,-0.022C0.317,-0.022 0.338,-0.025 0.36,-0.033C0.381,-0.041 0.402,-0.052 0.422,-0.066C0.441,-0.08 0.457,-0.096 0.47,-0.114C0.483,-0.133 0.49,-0.152 0.492,-0.172Z" style="fill-rule:nonzero;"/>
                    </g>
                    <g transform="matrix(266.667,0,0,266.667,905.131,563.72)">
                        <path d="M0.297,0.01C0.262,0.01 0.229,0.003 0.198,-0.012C0.168,-0.026 0.141,-0.046 0.118,-0.071C0.095,-0.095 0.076,-0.124 0.063,-0.157C0.05,-0.19 0.044,-0.225 0.044,-0.263C0.044,-0.311 0.055,-0.356 0.077,-0.396C0.099,-0.436 0.129,-0.468 0.167,-0.492C0.205,-0.516 0.247,-0.528 0.293,-0.528C0.341,-0.528 0.384,-0.516 0.421,-0.492C0.459,-0.467 0.49,-0.435 0.512,-0.395C0.535,-0.354 0.546,-0.31 0.546,-0.26C0.546,-0.257 0.545,-0.247 0.545,-0.245L0.079,-0.245C0.082,-0.202 0.094,-0.164 0.114,-0.13C0.135,-0.096 0.161,-0.069 0.193,-0.049C0.226,-0.029 0.261,-0.019 0.299,-0.019C0.337,-0.019 0.373,-0.029 0.406,-0.049C0.44,-0.068 0.463,-0.093 0.477,-0.124L0.508,-0.116C0.498,-0.092 0.483,-0.07 0.461,-0.051C0.44,-0.032 0.415,-0.017 0.387,-0.006C0.358,0.005 0.328,0.01 0.297,0.01ZM0.078,-0.273L0.512,-0.273C0.51,-0.317 0.498,-0.356 0.478,-0.39C0.459,-0.423 0.433,-0.45 0.401,-0.469C0.369,-0.489 0.334,-0.498 0.294,-0.498C0.256,-0.498 0.22,-0.489 0.189,-0.469C0.157,-0.45 0.131,-0.423 0.112,-0.389C0.092,-0.355 0.081,-0.316 0.078,-0.273Z" style="fill-rule:nonzero;"/>
                    </g>
                    <g transform="matrix(266.667,0,0,266.667,1059.56,563.72)">
                        <path d="M0.297,0.01C0.262,0.01 0.229,0.003 0.198,-0.012C0.168,-0.026 0.141,-0.046 0.118,-0.071C0.095,-0.095 0.076,-0.124 0.063,-0.157C0.05,-0.19 0.044,-0.225 0.044,-0.263C0.044,-0.311 0.055,-0.356 0.077,-0.396C0.099,-0.436 0.129,-0.468 0.167,-0.492C0.205,-0.516 0.247,-0.528 0.293,-0.528C0.341,-0.528 0.384,-0.516 0.421,-0.492C0.459,-0.467 0.49,-0.435 0.512,-0.395C0.535,-0.354 0.546,-0.31 0.546,-0.26C0.546,-0.257 0.545,-0.247 0.545,-0.245L0.079,-0.245C0.082,-0.202 0.094,-0.164 0.114,-0.13C0.135,-0.096 0.161,-0.069 0.193,-0.049C0.226,-0.029 0.261,-0.019 0.299,-0.019C0.337,-0.019 0.373,-0.029 0.406,-0.049C0.44,-0.068 0.463,-0.093 0.477,-0.124L0.508,-0.116C0.498,-0.092 0.483,-0.07 0.461,-0.051C0.44,-0.032 0.415,-0.017 0.387,-0.006C0.358,0.005 0.328,0.01 0.297,0.01ZM0.078,-0.273L0.512,-0.273C0.51,-0.317 0.498,-0.356 0.478,-0.39C0.459,-0.423 0.433,-0.45 0.401,-0.469C0.369,-0.489 0.334,-0.498 0.294,-0.498C0.256,-0.498 0.22,-0.489 0.189,-0.469C0.157,-0.45 0.131,-0.423 0.112,-0.389C0.092,-0.355 0.081,-0.316 0.078,-0.273Z" style="fill-rule:nonzero;"/>
                    </g>
                    <g transform="matrix(266.667,0,0,266.667,1213.98,563.72)">
                    </g>
                </g>
            </g>
        </g>
    </g>
    <g transform="matrix(2.78716,0,0,2.78716,3179.97,1526)">
        <g transform="matrix(1,0,0,1,-351.6,-98.6667)">
            <clipPath id="_clip3">
                <rect x="0" y="0" width="703.2" height="197.333"/>
            </clipPath>
            <g clip-path="url(#_clip3)">
                <g transform="matrix(1,0,0,1,-249.105,-356.015)">
                    <g transform="matrix(266.667,0,0,266.667,223.476,550.681)">
                        <path d="M0.751,-0L0.751,-0.64L0.453,-0.137L0.429,-0.137L0.131,-0.64L0.131,-0L0.096,-0L0.096,-0.71L0.128,-0.71L0.441,-0.182L0.754,-0.71L0.786,-0.71L0.786,-0L0.751,-0Z" style="fill-rule:nonzero;"/>
                    </g>
                    <g transform="matrix(266.667,0,0,266.667,456.794,550.681)">
                        <path d="M0.297,0.01C0.262,0.01 0.229,0.003 0.198,-0.012C0.168,-0.026 0.141,-0.046 0.118,-0.071C0.095,-0.095 0.076,-0.124 0.063,-0.157C0.05,-0.19 0.044,-0.225 0.044,-0.263C0.044,-0.311 0.055,-0.356 0.077,-0.396C0.099,-0.436 0.129,-0.468 0.167,-0.492C0.205,-0.516 0.247,-0.528 0.293,-0.528C0.341,-0.528 0.384,-0.516 0.421,-0.492C0.459,-0.467 0.49,-0.435 0.512,-0.395C0.535,-0.354 0.546,-0.31 0.546,-0.26C0.546,-0.257 0.545,-0.247 0.545,-0.245L0.079,-0.245C0.082,-0.202 0.094,-0.164 0.114,-0.13C0.135,-0.096 0.161,-0.069 0.193,-0.049C0.226,-0.029 0.261,-0.019 0.299,-0.019C0.337,-0.019 0.373,-0.029 0.406,-0.049C0.44,-0.068 0.463,-0.093 0.477,-0.124L0.508,-0.116C0.498,-0.092 0.483,-0.07 0.461,-0.051C0.44,-0.032 0.415,-0.017 0.387,-0.006C0.358,0.005 0.328,0.01 0.297,0.01ZM0.078,-0.273L0.512,-0.273C0.51,-0.317 0.498,-0.356 0.478,-0.39C0.459,-0.423 0.433,-0.45 0.401,-0.469C0.369,-0.489 0.334,-0.498 0.294,-0.498C0.256,-0.498 0.22,-0.489 0.189,-0.469C0.157,-0.45 0.131,-0.423 0.112,-0.389C0.092,-0.355 0.081,-0.316 0.078,-0.273Z" style="fill-rule:nonzero;"/>
                    </g>
                    <g transform="matrix(266.667,0,0,266.667,611.217,550.681)">
                        <path d="M0.044,-0.258C0.044,-0.307 0.055,-0.351 0.075,-0.392C0.096,-0.433 0.125,-0.465 0.161,-0.49C0.197,-0.515 0.238,-0.528 0.284,-0.528C0.331,-0.528 0.372,-0.515 0.408,-0.49C0.444,-0.466 0.472,-0.436 0.492,-0.402L0.492,-0.73L0.526,-0.73L0.526,-0.052C0.526,-0.045 0.528,-0.04 0.531,-0.036C0.534,-0.032 0.539,-0.03 0.544,-0.03L0.544,-0C0.536,0.001 0.53,0 0.526,-0.001C0.517,-0.003 0.509,-0.009 0.503,-0.017C0.497,-0.025 0.494,-0.034 0.494,-0.043L0.494,-0.106C0.473,-0.072 0.444,-0.044 0.407,-0.022C0.371,-0.001 0.333,0.01 0.294,0.01C0.258,0.01 0.225,0.002 0.194,-0.013C0.163,-0.028 0.137,-0.048 0.115,-0.074C0.092,-0.099 0.075,-0.128 0.063,-0.16C0.05,-0.192 0.044,-0.225 0.044,-0.258ZM0.492,-0.172L0.492,-0.351C0.482,-0.378 0.467,-0.402 0.445,-0.424C0.423,-0.446 0.399,-0.463 0.371,-0.477C0.343,-0.49 0.316,-0.496 0.289,-0.496C0.257,-0.496 0.228,-0.49 0.202,-0.476C0.177,-0.463 0.154,-0.445 0.136,-0.422C0.118,-0.399 0.103,-0.374 0.094,-0.346C0.084,-0.317 0.079,-0.288 0.079,-0.258C0.079,-0.227 0.084,-0.197 0.095,-0.169C0.107,-0.14 0.122,-0.115 0.143,-0.093C0.163,-0.071 0.186,-0.053 0.213,-0.041C0.239,-0.028 0.268,-0.022 0.298,-0.022C0.317,-0.022 0.338,-0.025 0.36,-0.033C0.381,-0.041 0.402,-0.052 0.422,-0.066C0.441,-0.08 0.457,-0.096 0.47,-0.114C0.483,-0.133 0.49,-0.152 0.492,-0.172Z" style="fill-rule:nonzero;"/>
                    </g>
                    <g transform="matrix(266.667,0,0,266.667,773.657,550.681)">
                        <path d="M0.081,-0L0.081,-0.52L0.115,-0.52L0.115,-0L0.081,-0ZM0.081,-0.646L0.081,-0.73L0.115,-0.73L0.115,-0.646L0.081,-0.646Z" style="fill-rule:nonzero;"/>
                    </g>
                    <g transform="matrix(266.667,0,0,266.667,826.098,550.681)">
                        <path d="M0.037,-0.149C0.037,-0.18 0.046,-0.206 0.065,-0.228C0.083,-0.251 0.109,-0.268 0.141,-0.281C0.173,-0.294 0.211,-0.301 0.253,-0.301C0.281,-0.301 0.31,-0.298 0.34,-0.293C0.37,-0.289 0.397,-0.282 0.421,-0.273L0.421,-0.328C0.421,-0.379 0.406,-0.42 0.376,-0.451C0.347,-0.482 0.307,-0.497 0.257,-0.497C0.232,-0.497 0.205,-0.492 0.176,-0.481C0.148,-0.47 0.119,-0.454 0.09,-0.434L0.074,-0.459C0.107,-0.482 0.139,-0.499 0.17,-0.511C0.201,-0.522 0.231,-0.528 0.259,-0.528C0.319,-0.528 0.367,-0.51 0.402,-0.474C0.437,-0.437 0.455,-0.388 0.455,-0.326L0.455,-0.052C0.455,-0.045 0.456,-0.039 0.46,-0.036C0.463,-0.032 0.467,-0.03 0.473,-0.03L0.473,-0C0.468,0 0.464,0 0.461,0C0.458,0 0.456,-0 0.454,-0.001C0.445,-0.003 0.437,-0.008 0.432,-0.016C0.427,-0.024 0.424,-0.032 0.424,-0.042L0.423,-0.087C0.399,-0.056 0.368,-0.033 0.33,-0.016C0.292,0.001 0.251,0.01 0.208,0.01C0.176,0.01 0.147,0.003 0.121,-0.011C0.095,-0.025 0.075,-0.044 0.06,-0.069C0.045,-0.093 0.037,-0.12 0.037,-0.149ZM0.403,-0.104C0.409,-0.112 0.414,-0.12 0.416,-0.127C0.419,-0.135 0.421,-0.142 0.421,-0.148L0.421,-0.243C0.395,-0.253 0.369,-0.261 0.341,-0.266C0.313,-0.27 0.285,-0.273 0.255,-0.273C0.2,-0.273 0.155,-0.262 0.121,-0.24C0.087,-0.217 0.07,-0.188 0.07,-0.151C0.07,-0.127 0.076,-0.105 0.089,-0.085C0.101,-0.065 0.118,-0.049 0.139,-0.037C0.161,-0.025 0.185,-0.019 0.212,-0.019C0.253,-0.019 0.291,-0.027 0.326,-0.043C0.36,-0.058 0.386,-0.079 0.403,-0.104Z" style="fill-rule:nonzero;"/>
                    </g>
                    <g transform="matrix(266.667,0,0,266.667,967.479,550.681)">
                    </g>
                </g>
            </g>
        </g>
    </g>
    <g transform="matrix(2.62344,0,0,2.62344,5289.16,1612.55)">
        <g transform="matrix(1,0,0,1,-361.8,-123.733)">
            <clipPath id="_clip4">
                <rect x="0" y="0" width="723.6" height="247.467"/>
            </clipPath>
            <g clip-path="url(#_clip4)">
                <g transform="matrix(1,0,0,1,-216.552,-547.205)">
                    <g transform="matrix(266.667,0,0,266.667,204.248,737.871)">
                        <path d="M0.38,0.005C0.332,0.005 0.287,-0.005 0.246,-0.026C0.205,-0.046 0.17,-0.074 0.14,-0.109C0.11,-0.143 0.087,-0.182 0.071,-0.225C0.054,-0.267 0.046,-0.311 0.046,-0.355C0.046,-0.402 0.054,-0.447 0.07,-0.49C0.086,-0.533 0.108,-0.571 0.137,-0.605C0.167,-0.639 0.201,-0.666 0.24,-0.685C0.28,-0.705 0.323,-0.715 0.371,-0.715C0.443,-0.715 0.501,-0.701 0.544,-0.672C0.586,-0.643 0.619,-0.605 0.642,-0.56L0.613,-0.545C0.587,-0.594 0.554,-0.628 0.512,-0.65C0.47,-0.672 0.423,-0.682 0.37,-0.682C0.326,-0.682 0.286,-0.673 0.25,-0.655C0.214,-0.636 0.184,-0.611 0.159,-0.58C0.134,-0.549 0.114,-0.513 0.101,-0.474C0.087,-0.436 0.081,-0.396 0.081,-0.355C0.081,-0.312 0.089,-0.27 0.104,-0.231C0.12,-0.192 0.141,-0.157 0.168,-0.126C0.196,-0.096 0.228,-0.072 0.264,-0.054C0.3,-0.036 0.34,-0.028 0.382,-0.028C0.429,-0.028 0.474,-0.039 0.517,-0.062C0.559,-0.085 0.6,-0.122 0.64,-0.172L0.64,-0.13C0.566,-0.04 0.48,0.005 0.38,0.005ZM0.628,-0.311L0.464,-0.311L0.464,-0.341L0.66,-0.341L0.66,-0L0.628,-0L0.628,-0.311Z" style="fill-rule:nonzero;"/>
                    </g>
                    <g transform="matrix(266.667,0,0,266.667,395.919,737.871)">
                        <path d="M0.314,-0.488C0.267,-0.486 0.225,-0.471 0.19,-0.442C0.154,-0.414 0.129,-0.375 0.115,-0.327L0.115,-0L0.081,-0L0.081,-0.52L0.114,-0.52L0.114,-0.388C0.132,-0.425 0.156,-0.455 0.186,-0.478C0.217,-0.502 0.249,-0.515 0.282,-0.519C0.289,-0.519 0.295,-0.52 0.3,-0.52C0.306,-0.52 0.311,-0.52 0.314,-0.52L0.314,-0.488Z" style="fill-rule:nonzero;"/>
                    </g>
                    <g transform="matrix(266.667,0,0,266.667,478.116,737.871)">
                        <path d="M0.294,0.01C0.259,0.01 0.226,0.003 0.196,-0.011C0.166,-0.025 0.139,-0.045 0.116,-0.07C0.093,-0.095 0.076,-0.123 0.063,-0.156C0.05,-0.188 0.044,-0.222 0.044,-0.258C0.044,-0.295 0.05,-0.33 0.063,-0.362C0.076,-0.394 0.094,-0.423 0.117,-0.448C0.14,-0.473 0.166,-0.493 0.197,-0.507C0.227,-0.521 0.26,-0.528 0.294,-0.528C0.329,-0.528 0.361,-0.521 0.392,-0.507C0.422,-0.493 0.449,-0.473 0.472,-0.448C0.495,-0.423 0.512,-0.394 0.525,-0.362C0.538,-0.33 0.545,-0.295 0.545,-0.258C0.545,-0.222 0.538,-0.188 0.526,-0.156C0.513,-0.123 0.495,-0.095 0.472,-0.07C0.449,-0.045 0.422,-0.025 0.392,-0.011C0.362,0.003 0.329,0.01 0.294,0.01ZM0.078,-0.257C0.078,-0.214 0.088,-0.174 0.107,-0.139C0.127,-0.103 0.153,-0.075 0.185,-0.053C0.218,-0.032 0.254,-0.022 0.293,-0.022C0.333,-0.022 0.369,-0.032 0.402,-0.054C0.435,-0.075 0.461,-0.104 0.481,-0.141C0.5,-0.177 0.51,-0.217 0.51,-0.259C0.51,-0.302 0.5,-0.342 0.481,-0.378C0.461,-0.414 0.435,-0.442 0.402,-0.464C0.37,-0.485 0.334,-0.496 0.294,-0.496C0.255,-0.496 0.219,-0.485 0.187,-0.463C0.154,-0.442 0.127,-0.412 0.108,-0.376C0.088,-0.34 0.078,-0.3 0.078,-0.257Z" style="fill-rule:nonzero;"/>
                    </g>
                    <g transform="matrix(266.667,0,0,266.667,635.097,737.871)">
                        <path d="M0.076,-0.224L0.076,-0.52L0.11,-0.52L0.11,-0.228C0.11,-0.158 0.121,-0.107 0.144,-0.073C0.167,-0.039 0.202,-0.022 0.249,-0.022C0.281,-0.022 0.311,-0.029 0.34,-0.043C0.369,-0.057 0.394,-0.077 0.416,-0.103C0.438,-0.128 0.454,-0.157 0.464,-0.19L0.464,-0.52L0.498,-0.52L0.498,-0.052C0.498,-0.045 0.5,-0.04 0.503,-0.036C0.506,-0.032 0.511,-0.03 0.516,-0.03L0.516,-0C0.511,0 0.507,0 0.504,0C0.502,-0 0.499,-0 0.497,-0.001C0.488,-0.003 0.481,-0.008 0.476,-0.016C0.47,-0.023 0.467,-0.032 0.467,-0.042L0.466,-0.128C0.444,-0.086 0.412,-0.052 0.372,-0.027C0.332,-0.002 0.289,0.01 0.242,0.01C0.188,0.01 0.146,-0.01 0.118,-0.049C0.09,-0.088 0.076,-0.147 0.076,-0.224Z" style="fill-rule:nonzero;"/>
                    </g>
                    <g transform="matrix(266.667,0,0,266.667,790.07,737.871)">
                        <path d="M0.323,0.01C0.278,0.01 0.238,-0.002 0.202,-0.027C0.166,-0.052 0.137,-0.081 0.115,-0.116L0.115,0.213L0.081,0.213L0.081,-0.52L0.113,-0.52L0.113,-0.412C0.135,-0.446 0.164,-0.474 0.2,-0.496C0.236,-0.517 0.274,-0.528 0.314,-0.528C0.35,-0.528 0.384,-0.52 0.414,-0.505C0.444,-0.49 0.47,-0.469 0.493,-0.444C0.515,-0.418 0.532,-0.389 0.544,-0.357C0.557,-0.325 0.563,-0.292 0.563,-0.259C0.563,-0.211 0.553,-0.167 0.533,-0.126C0.513,-0.085 0.485,-0.052 0.449,-0.027C0.414,-0.002 0.372,0.01 0.323,0.01ZM0.318,-0.022C0.35,-0.022 0.379,-0.028 0.405,-0.042C0.431,-0.055 0.453,-0.073 0.471,-0.096C0.49,-0.119 0.504,-0.144 0.514,-0.172C0.524,-0.2 0.529,-0.229 0.529,-0.259C0.529,-0.29 0.523,-0.32 0.512,-0.348C0.501,-0.376 0.485,-0.402 0.465,-0.424C0.444,-0.446 0.421,-0.464 0.395,-0.477C0.368,-0.49 0.34,-0.496 0.309,-0.496C0.29,-0.496 0.269,-0.492 0.248,-0.484C0.226,-0.476 0.205,-0.465 0.186,-0.451C0.166,-0.436 0.15,-0.42 0.137,-0.402C0.124,-0.384 0.117,-0.366 0.115,-0.346L0.115,-0.167C0.127,-0.14 0.144,-0.115 0.164,-0.094C0.184,-0.072 0.208,-0.054 0.234,-0.041C0.261,-0.028 0.289,-0.022 0.318,-0.022Z" style="fill-rule:nonzero;"/>
                    </g>
                    <g transform="matrix(266.667,0,0,266.667,951.968,737.871)">
                    </g>
                </g>
            </g>
        </g>
    </g>
</svg>
